<svg width="15" height="14" viewBox="0 0 15 14" fill="none" xmlns="http://www.w3.org/2000/svg">
<mask id="path-1-inside-1" fill="white">
<path d="M13.533 0.896744C11.9288 -0.470275 9.54315 -0.224387 8.07075 1.29485L7.49408 1.88908L6.91742 1.29485C5.44794 -0.224387 3.05932 -0.470275 1.45519 0.896744C-0.383109 2.46574 -0.479707 5.28174 1.1654 6.98247L6.8296 12.8311C7.1955 13.2087 7.78973 13.2087 8.15564 12.8311L13.8198 6.98247C15.4679 5.28174 15.3713 2.46574 13.533 0.896744Z"/>
</mask>
<path d="M13.533 0.896744C11.9288 -0.470275 9.54315 -0.224387 8.07075 1.29485L7.49408 1.88908L6.91742 1.29485C5.44794 -0.224387 3.05932 -0.470275 1.45519 0.896744C-0.383109 2.46574 -0.479707 5.28174 1.1654 6.98247L6.8296 12.8311C7.1955 13.2087 7.78973 13.2087 8.15564 12.8311L13.8198 6.98247C15.4679 5.28174 15.3713 2.46574 13.533 0.896744Z" stroke="black" stroke-width="2" mask="url(#path-1-inside-1)"/>
</svg>
